# xmcd
#
# Track frame offsets: 
#        150
#        10232
#        23192
#        35415
#        54622
#        69482
#        82370
#        97615
#        110772
#        125420
#        137332
#        153025
#
# Disc length: 2222 seconds
#
# Revision: 0
# Processed by: cddbd v1.5.2PL0 Copyright (c) Steve Scherf et al.
# Submitted via: ExactAudioCopy v0.95a5
#
DISCID=9308ac0c
DTITLE=Muriel Anderson - HomeTown Live!
DYEAR=1900
DGENRE=
TTITLE0=Hometown
TTITLE1=It Nerver Gets Easier
TTITLE2=All Thumbs
TTITLE3=The Three Sisters
TTITLE4=Andante
TTITLE5=Arioso
TTITLE6=Fantasia de Fuego
TTITLE7=After Tonight
TTITLE8=In Memory of a Friend
TTITLE9=Mister Chester
TTITLE10=Nola
TTITLE11=The Water Is Wide
EXTD=
EXTT0=
EXTT1=
EXTT2=
EXTT3=
EXTT4=
EXTT5=
EXTT6=
EXTT7=
EXTT8=
EXTT9=
EXTT10=
EXTT11=
PLAYORDER=
